<svg viewBox="0 0 28 28" fill="none" xmlns="http://www.w3.org/2000/svg" xmlns:xlink="http://www.w3.org/1999/xlink" x="0" y="0"><g id="Group 1171275316">
<circle id="Ellipse 20" cx="14" cy="14" r="14" fill="currentColor"/>
<g id="Instagram">
<path id="Vector_9" d="M17.289,19.11h-6.579c-0.909,0 -1.651,-0.75 -1.651,-1.66v-6.58c0,-0.9 0.742,-1.65 1.651,-1.65h6.579c0.909,0 1.652,0.75 1.652,1.65v6.58c0,0.92 -0.739,1.66 -1.652,1.66z" fill="white"/>
<path id="Vector_10" d="M14.001,16.7c-0.677,0 -1.315,-0.26 -1.793,-0.74c-0.479,-0.48 -0.743,-1.12 -0.743,-1.79c0,-0.68 0.264,-1.32 0.743,-1.8c0.478,-0.48 1.116,-0.74 1.793,-0.74c0.678,0 1.315,0.26 1.794,0.74c0.479,0.48 0.743,1.12 0.743,1.8c0,0.67 -0.264,1.31 -0.743,1.79c-0.483,0.48 -1.116,0.74 -1.794,0.74zM14.001,12.17c-1.099,0 -1.996,0.89 -1.996,2c0,1.1 0.892,1.99 1.996,1.99c1.1,0 1.997,-0.89 1.997,-1.99c-0.004,-1.1 -0.897,-2 -1.997,-2z" fill="currentColor"/>
<path id="Vector_11" d="M17.034,11.55c0.269,0 0.487,-0.22 0.487,-0.49c0,-0.27 -0.218,-0.49 -0.487,-0.49c-0.269,0 -0.487,0.22 -0.487,0.49c0,0.27 0.218,0.49 0.487,0.49z" fill="currentColor"/>
</g>
</g></svg>