<svg viewBox="0 0 10 10" fill="none" xmlns="http://www.w3.org/2000/svg" xmlns:xlink="http://www.w3.org/1999/xlink" x="0" y="0"><path id="Vector_56" d="M5,0c-2.76,0 -5,2.245 -5,5c0,2.755 2.24,5 5,5c2.76,0 5,-2.245 5,-5c0,-2.755 -2.24,-5 -5,-5zM6.68,6.15c0.14,0.145 0.14,0.385 0,0.53c-0.07,0.075 -0.17,0.11 -0.27,0.11c-0.09,0 -0.19,-0.035 -0.26,-0.11l-1.15,-1.15l-1.15,1.15c-0.08,0.075 -0.17,0.11 -0.26,0.11c-0.1,0 -0.19,-0.035 -0.27,-0.11c-0.14,-0.145 -0.14,-0.385 0,-0.53l1.15,-1.15l-1.15,-1.15c-0.14,-0.145 -0.14,-0.385 0,-0.53c0.15,-0.145 0.38,-0.145 0.53,0l1.15,1.15l1.15,-1.15c0.15,-0.145 0.38,-0.145 0.53,0c0.14,0.145 0.14,0.385 0,0.53l-1.15,1.15z" fill="currentColor"/></svg>